<?xml version="1.0" encoding="UTF-8" standalone="no"?>
<!-- Created with Inkscape (http://www.inkscape.org/) -->

<svg
   xmlns:dc="http://purl.org/dc/elements/1.1/"
   xmlns:cc="http://creativecommons.org/ns#"
   xmlns:rdf="http://www.w3.org/1999/02/22-rdf-syntax-ns#"
   xmlns:svg="http://www.w3.org/2000/svg"
   xmlns="http://www.w3.org/2000/svg"
   xmlns:xlink="http://www.w3.org/1999/xlink"
   xmlns:sodipodi="http://sodipodi.sourceforge.net/DTD/sodipodi-0.dtd"
   xmlns:inkscape="http://www.inkscape.org/namespaces/inkscape"
   width="22"
   height="22"
   id="svg6662"
   version="1.1"
   inkscape:version="0.91 r13725"
   sodipodi:docname="tools-check-spelling.svg">
  <defs
     id="defs6664">
    <linearGradient
       inkscape:collect="always"
       xlink:href="#linearGradient1022-8-8-3-0-2-3-3"
       id="linearGradient3042-5"
       gradientUnits="userSpaceOnUse"
       gradientTransform="matrix(1.6587849,0,0,1.4906648,-315.93608,465.46808)"
       x1="196.41476"
       y1="381.10251"
       x2="196.41476"
       y2="391.7005" />
    <linearGradient
       gradientUnits="userSpaceOnUse"
       id="linearGradient1022-8-8-3-0-2-3-3"
       x2="0"
       y1="3.0069399"
       y2="11.02436">
      <stop
         offset="0"
         id="stop3001-0-9-4-1-4-7" />
      <stop
         offset="1"
         stop-color="#363636"
         id="stop3003-5-6-6-1-1-1" />
    </linearGradient>
  </defs>
  <sodipodi:namedview
     id="base"
     pagecolor="#ffffff"
     bordercolor="#666666"
     borderopacity="1.0"
     inkscape:pageopacity="0.0"
     inkscape:pageshadow="2"
     inkscape:zoom="11.313708"
     inkscape:cx="29.706976"
     inkscape:cy="16.022601"
     inkscape:document-units="px"
     inkscape:current-layer="capa1"
     showgrid="true"
     inkscape:showpageshadow="false"
     inkscape:window-width="1366"
     inkscape:window-height="704"
     inkscape:window-x="0"
     inkscape:window-y="27"
     inkscape:window-maximized="1"
     width="22px">
    <inkscape:grid
       type="xygrid"
       id="grid3327"
       empspacing="5"
       visible="true"
       enabled="true"
       snapvisiblegridlinesonly="true" />
  </sodipodi:namedview>
  <metadata
     id="metadata6667">
    <rdf:RDF>
      <cc:Work
         rdf:about="">
        <dc:format>image/svg+xml</dc:format>
        <dc:type
           rdf:resource="http://purl.org/dc/dcmitype/StillImage" />
        <dc:title />
      </cc:Work>
    </rdf:RDF>
  </metadata>
  <g
     inkscape:label="Capa 1"
     inkscape:groupmode="layer"
     id="capa1"
     transform="translate(0,-1030.3622)">
    <path
       inkscape:connector-curvature="0"
       id="path3110"
       d="m 9.8429173,1033.978 -1.7279103,0.2776 0,10.5526 c 0.342276,0.1046 0.7825153,0.2227 1.2959327,0.3086 0.5229219,0.086 1.0648773,0.1234 1.6353433,0.1234 0.589473,0 1.10775,-0.097 1.573633,-0.2777 0.465871,-0.1807 0.880098,-0.46 1.203366,-0.8022 0.332763,-0.3423 0.569387,-0.7281 0.740533,-1.2034 0.180635,-0.4849 0.277692,-1.0364 0.2777,-1.6353 -8e-6,-0.58 -0.06387,-1.0983 -0.215989,-1.5737 -0.142624,-0.4849 -0.37225,-0.892 -0.647966,-1.2342 -0.27573,-0.3424 -0.5999,-0.6217 -1.018233,-0.8023 -0.408837,-0.1904 -0.896436,-0.2776 -1.419355,-0.2776 -0.35179,0 -0.661787,0.037 -0.956522,0.1234 -0.285234,0.086 -0.540874,0.1731 -0.7405327,0.2777 l 0,-3.8569 z m -6.8499299,3.4249 c -0.4753885,0 -0.9084518,0.047 -1.3267882,0.1234 -0.418341,0.076 -0.73784605,0.14 -0.95652178,0.216 l 0.21598878,1.3885 c 0.2091679,-0.076 0.4694723,-0.1279 0.802244,-0.1851 0.3327672,-0.057 0.7114727,-0.093 1.1107995,-0.093 0.2947353,0 0.5195193,0.047 0.7096774,0.1235 0.1996576,0.076 0.3795917,0.1659 0.4936886,0.3085 0.1235955,0.1332 0.1993012,0.313 0.2468444,0.4937 0.047533,0.1807 0.061706,0.3558 0.061711,0.5554 l 0,0.2777 c -0.2376974,-0.057 -0.4388012,-0.074 -0.6479663,-0.093 -0.2091736,-0.029 -0.4269605,-0.061 -0.6171108,-0.061 -0.4088347,0 -0.7922051,0.037 -1.1725105,0.1234 -0.3708027,0.076 -0.7021479,0.2109 -0.9873773,0.4011 -0.28523246,0.1806 -0.50768412,0.415 -0.67882188,0.7097 C 0.08521263,1041.9865 -5.6280509e-7,1042.3747 0,1042.8025 c -5.6280509e-7,0.4469 0.07337299,0.8065 0.21598878,1.1108 0.15212245,0.3043 0.36040159,0.5505 0.6171108,0.7406 0.26621422,0.1901 0.58571912,0.3461 0.95652172,0.432 0.3707979,0.086 0.7565006,0.1234 1.2033661,0.1234 0.675043,0 1.2880404,-0.037 1.8204768,-0.1234 0.5419335,-0.076 0.9371439,-0.1588 1.2033661,-0.2161 l 0,-4.5049 c -6.6e-6,-0.4373 -0.0497,-0.842 -0.1542777,-1.2033 -0.095083,-0.3708 -0.2560022,-0.6999 -0.4936886,-0.9566 -0.2281907,-0.2567 -0.5358556,-0.4436 -0.9256662,-0.5862 -0.3898207,-0.1429 -0.8797521,-0.216 -1.4502104,-0.216 z m 16.9088356,0 c -0.570466,0 -1.08641,0.1089 -1.542777,0.3085 -0.456371,0.1998 -0.84925,0.4505 -1.17251,0.8023 -0.313756,0.3518 -0.53854,0.7802 -0.709678,1.2651 -0.171142,0.4754 -0.277701,0.9913 -0.2777,1.5428 -1e-6,0.5609 0.09472,1.0887 0.246845,1.5736 0.152122,0.4754 0.374573,0.8824 0.678822,1.2342 0.313752,0.3423 0.70663,0.6026 1.17251,0.8022 0.475382,0.1905 1.029179,0.3086 1.666199,0.3086 0.408827,0 0.792197,-0.047 1.172511,-0.1234 0.38981,-0.076 0.673795,-0.1521 0.863955,-0.2469 l -0.215989,-1.4501 c -0.209175,0.086 -0.455307,0.1586 -0.740533,0.2159 -0.285235,0.057 -0.600076,0.093 -0.89481,0.093 -0.789144,0 -1.333433,-0.2202 -1.6662,-0.648 -0.332771,-0.4373 -0.49369,-1.0171 -0.493688,-1.7587 -2e-6,-0.7702 0.172756,-1.3713 0.524544,-1.7896 0.351782,-0.4279 0.867726,-0.6481 1.542777,-0.6481 0.285226,0 0.555038,0.036 0.802244,0.093 0.256702,0.057 0.479154,0.13 0.678822,0.2159 l 0.370266,-1.4194 c -0.627513,-0.2567 -1.302045,-0.3702 -2.00561,-0.3702 z m -8.639551,1.5119 c 0.627504,0 1.072407,0.2201 1.357644,0.648 0.294733,0.4279 0.462827,0.9957 0.462833,1.7279 -6e-6,0.7605 -0.194113,1.3523 -0.5554,1.7896 -0.361298,0.4278 -0.844054,0.648 -1.481066,0.648 -0.275727,0 -0.510019,-0.012 -0.709677,-0.031 -0.190157,-0.029 -0.3700918,-0.064 -0.4936887,-0.093 l 0,-4.289 c 0.1521202,-0.1045 0.3699067,-0.1917 0.6171107,-0.2776 0.256704,-0.086 0.51701,-0.1235 0.802244,-0.1235 z m -7.9298737,2.8078 c 0.2186732,0 0.43646,0 0.6171108,0.031 0.1806418,0.029 0.3060396,0.064 0.401122,0.093 l 0,1.913 c -0.2757281,0.057 -0.6709386,0.061 -1.203366,0.061 -0.4373578,0 -0.7923832,-0.064 -1.0490884,-0.2159 -0.2567106,-0.1616 -0.3702687,-0.4552 -0.3702665,-0.864 -2.2e-6,-0.2092 0.028343,-0.3606 0.1234222,-0.4937 0.095075,-0.1426 0.2181405,-0.2634 0.3702665,-0.3394 0.1616281,-0.076 0.3343868,-0.1256 0.5245442,-0.1542 0.1996583,-0.029 0.3960973,-0.031 0.5862552,-0.031 z M 1.9747546,1046.4127 0,1048.3874 l 0,1.9748 1.9747546,-1.9748 1.9747545,1.9748 1.9747546,-1.9748 1.9747545,1.9748 1.9747546,-1.9748 1.9747542,1.9748 1.974755,-1.9748 1.974754,1.9748 1.974755,-1.9748 1.974755,1.9748 1.974754,-1.9748 0,-1.9747 -1.974754,1.9747 -1.974755,-1.9747 -1.974755,1.9747 -1.974754,-1.9747 -1.974755,1.9747 -1.9747542,-1.9747 -1.9747546,1.9747 -1.9747545,-1.9747 -1.9747546,1.9747 -1.9747545,-1.9747 z"
       style="font-size:14.44388294px;font-style:normal;font-variant:normal;font-weight:500;font-stretch:normal;line-height:125%;letter-spacing:0px;word-spacing:0px;opacity:0.6;color:#000000;fill:#ffffff;fill-opacity:1;fill-rule:nonzero;stroke:none;stroke-width:0.66666669;marker:none;visibility:visible;display:inline;overflow:visible;enable-background:accumulate;font-family:Ubuntu;-inkscape-font-specification:Ubuntu Medium" />
    <path
       style="font-size:14.44388294px;font-style:normal;font-variant:normal;font-weight:500;font-stretch:normal;line-height:125%;letter-spacing:0px;word-spacing:0px;opacity:0.75;color:#000000;fill:url(#linearGradient3042-5);fill-opacity:1;fill-rule:nonzero;stroke:none;stroke-width:1;marker:none;visibility:visible;display:inline;overflow:visible;enable-background:accumulate;font-family:Ubuntu;-inkscape-font-specification:Ubuntu Medium"
       d="m 9.8429173,1032.9776 -1.7279103,0.2776 0,10.5526 c 0.342276,0.1046 0.7825153,0.2227 1.2959327,0.3086 0.5229219,0.086 1.0648773,0.1234 1.6353433,0.1234 0.589473,0 1.10775,-0.097 1.573633,-0.2777 0.465871,-0.1807 0.880098,-0.46 1.203366,-0.8022 0.332763,-0.3423 0.569387,-0.7281 0.740533,-1.2034 0.180635,-0.4849 0.277692,-1.0364 0.2777,-1.6353 -8e-6,-0.58 -0.06387,-1.0983 -0.215989,-1.5737 -0.142624,-0.4849 -0.37225,-0.892 -0.647966,-1.2342 -0.27573,-0.3424 -0.5999,-0.6217 -1.018233,-0.8023 -0.408837,-0.1904 -0.896436,-0.2776 -1.419355,-0.2776 -0.35179,0 -0.661787,0.038 -0.956522,0.1234 -0.285234,0.086 -0.540874,0.1731 -0.7405327,0.2777 l 0,-3.8569 z m -6.8499299,3.4249 c -0.4753885,0 -0.9084518,0.047 -1.3267882,0.1234 -0.418341,0.076 -0.73784605,0.14 -0.95652178,0.216 l 0.21598878,1.3885 c 0.2091679,-0.076 0.4694723,-0.1279 0.802244,-0.1851 0.3327672,-0.057 0.7114727,-0.093 1.1107995,-0.093 0.2947353,0 0.5195193,0.047 0.7096774,0.1235 0.1996576,0.076 0.3795917,0.1659 0.4936886,0.3085 0.1235955,0.1332 0.1993012,0.313 0.2468444,0.4937 0.047533,0.1807 0.061706,0.3558 0.061711,0.5554 l 0,0.2777 c -0.2376974,-0.057 -0.4388012,-0.074 -0.6479663,-0.093 -0.2091736,-0.029 -0.4269605,-0.061 -0.6171108,-0.061 -0.4088347,0 -0.7922051,0.037 -1.1725105,0.1234 -0.3708027,0.076 -0.7021479,0.2109 -0.9873773,0.4011 -0.28523246,0.1806 -0.50768412,0.415 -0.67882188,0.7097 C 0.08521263,1040.9861 -5.6280509e-7,1041.3743 0,1041.8021 c -5.6280509e-7,0.4469 0.07337299,0.8065 0.21598878,1.1108 0.15212245,0.3043 0.36040159,0.5505 0.6171108,0.7406 0.26621422,0.1901 0.58571912,0.3461 0.95652172,0.432 0.3707979,0.086 0.7565006,0.1234 1.2033661,0.1234 0.675043,0 1.2880404,-0.038 1.8204768,-0.1234 0.5419335,-0.076 0.9371439,-0.1588 1.2033661,-0.2161 l 0,-4.5049 c -6.6e-6,-0.4373 -0.0497,-0.842 -0.1542777,-1.2033 -0.095083,-0.3708 -0.2560022,-0.6999 -0.4936886,-0.9566 -0.2281907,-0.2567 -0.5358556,-0.4436 -0.9256662,-0.5862 -0.3898207,-0.1429 -0.8797521,-0.216 -1.4502104,-0.216 z m 16.9088356,0 c -0.570466,0 -1.08641,0.1089 -1.542777,0.3085 -0.456371,0.1998 -0.84925,0.4505 -1.17251,0.8023 -0.313756,0.3518 -0.53854,0.7802 -0.709678,1.2651 -0.171142,0.4754 -0.277701,0.9913 -0.2777,1.5428 -1e-6,0.5609 0.09472,1.0887 0.246845,1.5736 0.152122,0.4754 0.374573,0.8824 0.678822,1.2342 0.313752,0.3423 0.70663,0.6026 1.17251,0.8022 0.475382,0.1905 1.029179,0.3086 1.666199,0.3086 0.408827,0 0.792197,-0.047 1.172511,-0.1234 0.38981,-0.076 0.673795,-0.1521 0.863955,-0.2469 l -0.215989,-1.4501 c -0.209175,0.086 -0.455307,0.1586 -0.740533,0.2159 -0.285235,0.057 -0.600076,0.093 -0.89481,0.093 -0.789144,0 -1.333433,-0.2202 -1.6662,-0.648 -0.332771,-0.4373 -0.49369,-1.0171 -0.493688,-1.7587 -2e-6,-0.7702 0.172756,-1.3713 0.524544,-1.7896 0.351782,-0.4279 0.867726,-0.6481 1.542777,-0.6481 0.285226,0 0.555038,0.036 0.802244,0.093 0.256702,0.057 0.479154,0.13 0.678822,0.2159 l 0.370266,-1.4194 c -0.627513,-0.2567 -1.302045,-0.3702 -2.00561,-0.3702 z m -8.639551,1.5119 c 0.627504,0 1.072407,0.2201 1.357644,0.648 0.294733,0.4279 0.462827,0.9957 0.462833,1.7279 -6e-6,0.7605 -0.194113,1.3523 -0.5554,1.7896 -0.361298,0.4278 -0.844054,0.648 -1.481066,0.648 -0.275727,0 -0.510019,-0.012 -0.709677,-0.031 -0.190157,-0.029 -0.3700918,-0.064 -0.4936887,-0.093 l 0,-4.289 c 0.1521202,-0.1045 0.3699067,-0.1917 0.6171107,-0.2776 0.256704,-0.086 0.51701,-0.1235 0.802244,-0.1235 z m -7.9298737,2.8078 c 0.2186732,0 0.43646,0 0.6171108,0.031 0.1806418,0.029 0.3060396,0.064 0.401122,0.093 l 0,1.913 c -0.2757281,0.057 -0.6709386,0.061 -1.203366,0.061 -0.4373578,0 -0.7923832,-0.064 -1.0490884,-0.2159 -0.2567106,-0.1616 -0.3702687,-0.4552 -0.3702665,-0.864 -2.2e-6,-0.2092 0.028343,-0.3606 0.1234222,-0.4937 0.095075,-0.1426 0.2181405,-0.2634 0.3702665,-0.3394 0.1616281,-0.076 0.3343868,-0.1256 0.5245442,-0.1542 0.1996583,-0.029 0.3960973,-0.031 0.5862552,-0.031 z M 1.9747546,1045.4123 0,1047.387 l 0,1.9748 1.9747546,-1.9748 1.9747545,1.9748 1.9747546,-1.9748 1.9747545,1.9748 1.9747546,-1.9748 1.9747542,1.9748 1.974755,-1.9748 1.974754,1.9748 1.974755,-1.9748 1.974755,1.9748 1.974754,-1.9748 0,-1.9747 -1.974754,1.9747 -1.974755,-1.9747 -1.974755,1.9747 -1.974754,-1.9747 -1.974755,1.9747 -1.9747542,-1.9747 -1.9747546,1.9747 -1.9747545,-1.9747 -1.9747546,1.9747 -1.9747545,-1.9747 z"
       id="path3056"
       inkscape:connector-curvature="0" />
  </g>
</svg>
