<?xml version="1.0" encoding="UTF-8" standalone="no"?>
<!-- Created with Inkscape (http://www.inkscape.org/) -->

<svg
   xmlns:dc="http://purl.org/dc/elements/1.1/"
   xmlns:cc="http://creativecommons.org/ns#"
   xmlns:rdf="http://www.w3.org/1999/02/22-rdf-syntax-ns#"
   xmlns:svg="http://www.w3.org/2000/svg"
   xmlns="http://www.w3.org/2000/svg"
   xmlns:xlink="http://www.w3.org/1999/xlink"
   xmlns:sodipodi="http://sodipodi.sourceforge.net/DTD/sodipodi-0.dtd"
   xmlns:inkscape="http://www.inkscape.org/namespaces/inkscape"
   width="22"
   height="22"
   id="svg6662"
   version="1.1"
   inkscape:version="0.91 r13725"
   sodipodi:docname="gtk-save-as.svg">
  <defs
     id="defs6664">
    <linearGradient
       y2="11.02436"
       y1="3.0069399"
       x2="0"
       id="linearGradient1022-8-8-3-0-3-2"
       gradientUnits="userSpaceOnUse">
      <stop
         id="stop3001-0-9-4-4-5"
         offset="0" />
      <stop
         id="stop3003-5-6-6-9-9"
         stop-color="#363636"
         offset="1" />
    </linearGradient>
    <linearGradient
       inkscape:collect="always"
       xlink:href="#linearGradient1022-8-8-3-0-3-2"
       id="linearGradient3067"
       gradientUnits="userSpaceOnUse"
       gradientTransform="matrix(1.679991,0,0,1.5097216,-71.47504,1016.4641)"
       x1="49.092548"
       y1="9.8681107"
       x2="49.092548"
       y2="23.115587" />
  </defs>
  <sodipodi:namedview
     id="base"
     pagecolor="#ffffff"
     bordercolor="#666666"
     borderopacity="1.0"
     inkscape:pageopacity="0.0"
     inkscape:pageshadow="2"
     inkscape:zoom="9.0598056"
     inkscape:cx="12"
     inkscape:cy="14.869395"
     inkscape:document-units="px"
     inkscape:current-layer="capa1"
     showgrid="true"
     inkscape:showpageshadow="false"
     inkscape:window-width="730"
     inkscape:window-height="702"
     inkscape:window-x="292"
     inkscape:window-y="214"
     inkscape:window-maximized="0"
     inkscape:snap-bbox="true">
    <inkscape:grid
       type="xygrid"
       id="grid2990"
       empspacing="5"
       visible="true"
       enabled="true"
       snapvisiblegridlinesonly="true" />
  </sodipodi:namedview>
  <metadata
     id="metadata6667">
    <rdf:RDF>
      <cc:Work
         rdf:about="">
        <dc:format>image/svg+xml</dc:format>
        <dc:type
           rdf:resource="http://purl.org/dc/dcmitype/StillImage" />
        <dc:title />
      </cc:Work>
    </rdf:RDF>
  </metadata>
  <g
     inkscape:label="Capa 1"
     inkscape:groupmode="layer"
     id="capa1"
     transform="translate(0,-1030.3622)">
    <path
       id="path3069"
       d="m 7,1032.3622 4,4 4,-4 -8,0 z m -3,5 -2,2 0,11 2,2 14,0 2,-2 0,-9 -2,-2 -5,0 -2,-2 -7,0 z m 0,2 6,0 2,2 6,0 0,9 -14,0 0,-11 z m 3,5 -1,1 0,1 1,1 1,0 1,-1 0,-1 -1,-1 -1,0 z m 4,0 -1,1 0,1 1,1 1,0 1,-1 0,-1 -1,-1 -1,0 z m 4,0 -1,1 0,1 1,1 1,0 1,-1 0,-1 -1,-1 -1,0 z"
       style="opacity:0.6;color:black;fill:white;fill-opacity:1;fill-rule:nonzero;stroke:none;stroke-width:1;marker:none;visibility:visible;display:inline;overflow:visible;enable-background:accumulate"
       inkscape:connector-curvature="0" />
    <path
       style="opacity:0.7;color:black;fill:url(#linearGradient3067);fill-opacity:1;fill-rule:nonzero;stroke:none;stroke-width:1;marker:none;visibility:visible;display:inline;overflow:visible;enable-background:accumulate"
       d="m 7,1031.3622 4,4 4,-4 -8,0 z m -3,5 -2,2 0,11 2,2 14,0 2,-2 0,-9 -2,-2 -5,0 -2,-2 -7,0 z m 0,2 6,0 2,2 6,0 0,9 -14,0 0,-11 z m 3,5 -1,1 0,1 1,1 1,0 1,-1 0,-1 -1,-1 -1,0 z m 4,0 -1,1 0,1 1,1 1,0 1,-1 0,-1 -1,-1 -1,0 z m 4,0 -1,1 0,1 1,1 1,0 1,-1 0,-1 -1,-1 -1,0 z"
       id="path3001"
       inkscape:connector-curvature="0" />
  </g>
</svg>
